<mxfile host="app.diagrams.net" modified="2024-06-03T12:40:17.198Z" agent="Mozilla/5.0 (Windows NT 10.0; Win64; x64) AppleWebKit/537.36 (KHTML, like Gecko) Chrome/121.0.0.0 Safari/537.36" version="24.4.13" etag="f_HQXZ2H7-mj1bpJiPbi" type="google">
  <diagram name="PÃ¡gina-1" id="pRcZzGJngVDuiPJk2UlS">
    <mxGraphModel>
      <root>
        <mxCell id="0" />
        <mxCell id="1" parent="0" />
      </root>
    </mxGraphModel>
  </diagram>
</mxfile>
